<mxfile host="app.diagrams.net" agent="Mozilla/5.0 (Windows NT 10.0; Win64; x64) AppleWebKit/537.36 (KHTML, like Gecko) Chrome/116.0.0.0 Safari/537.36" version="27.2.0">
  <diagram name="第 1 页" id="rsgkCpmKNGYn_1RYENm2">
    <mxGraphModel dx="1426" dy="755" grid="1" gridSize="10" guides="1" tooltips="1" connect="1" arrows="1" fold="1" page="1" pageScale="1" pageWidth="827" pageHeight="1169" math="0" shadow="0">
      <root>
        <mxCell id="0" />
        <mxCell id="1" parent="0" />
        <mxCell id="QA0QUVK-8WRyYNtd_WsQ-3" value="" style="edgeStyle=orthogonalEdgeStyle;rounded=0;orthogonalLoop=1;jettySize=auto;html=1;" edge="1" parent="1" source="QA0QUVK-8WRyYNtd_WsQ-1">
          <mxGeometry relative="1" as="geometry">
            <mxPoint x="390" y="220" as="targetPoint" />
          </mxGeometry>
        </mxCell>
        <mxCell id="QA0QUVK-8WRyYNtd_WsQ-1" value="卡片/浮标/浮层内容获取" style="whiteSpace=wrap;html=1;" vertex="1" parent="1">
          <mxGeometry x="300" y="80" width="180" height="60" as="geometry" />
        </mxCell>
        <mxCell id="QA0QUVK-8WRyYNtd_WsQ-10" value="" style="edgeStyle=orthogonalEdgeStyle;rounded=0;orthogonalLoop=1;jettySize=auto;html=1;" edge="1" parent="1" source="QA0QUVK-8WRyYNtd_WsQ-7" target="QA0QUVK-8WRyYNtd_WsQ-9">
          <mxGeometry relative="1" as="geometry" />
        </mxCell>
        <mxCell id="QA0QUVK-8WRyYNtd_WsQ-7" value="根据跳转类型找到对应handler" style="whiteSpace=wrap;html=1;" vertex="1" parent="1">
          <mxGeometry x="290" y="220" width="200" height="50" as="geometry" />
        </mxCell>
        <mxCell id="QA0QUVK-8WRyYNtd_WsQ-9" value="handler处理跳转链接" style="whiteSpace=wrap;html=1;" vertex="1" parent="1">
          <mxGeometry x="325" y="360" width="130" height="60" as="geometry" />
        </mxCell>
        <mxCell id="QA0QUVK-8WRyYNtd_WsQ-11" value="" style="edgeStyle=orthogonalEdgeStyle;rounded=0;orthogonalLoop=1;jettySize=auto;html=1;" edge="1" parent="1" source="QA0QUVK-8WRyYNtd_WsQ-12">
          <mxGeometry relative="1" as="geometry">
            <mxPoint x="400" y="680" as="targetPoint" />
          </mxGeometry>
        </mxCell>
        <mxCell id="QA0QUVK-8WRyYNtd_WsQ-12" value="卡片/浮标/浮层内容获取" style="whiteSpace=wrap;html=1;" vertex="1" parent="1">
          <mxGeometry x="310" y="540" width="180" height="60" as="geometry" />
        </mxCell>
        <mxCell id="QA0QUVK-8WRyYNtd_WsQ-13" value="" style="edgeStyle=orthogonalEdgeStyle;rounded=0;orthogonalLoop=1;jettySize=auto;html=1;exitX=1;exitY=0.5;exitDx=0;exitDy=0;" edge="1" parent="1" source="QA0QUVK-8WRyYNtd_WsQ-18" target="QA0QUVK-8WRyYNtd_WsQ-15">
          <mxGeometry relative="1" as="geometry">
            <mxPoint x="500" y="705" as="sourcePoint" />
          </mxGeometry>
        </mxCell>
        <mxCell id="QA0QUVK-8WRyYNtd_WsQ-15" value="其他handler处理跳转链接" style="whiteSpace=wrap;html=1;" vertex="1" parent="1">
          <mxGeometry x="550" y="830" width="160" height="60" as="geometry" />
        </mxCell>
        <mxCell id="QA0QUVK-8WRyYNtd_WsQ-16" value="【新增】任务墙handler处理跳转链接" style="whiteSpace=wrap;html=1;" vertex="1" parent="1">
          <mxGeometry x="130" y="830" width="160" height="60" as="geometry" />
        </mxCell>
        <mxCell id="QA0QUVK-8WRyYNtd_WsQ-17" style="edgeStyle=orthogonalEdgeStyle;rounded=0;orthogonalLoop=1;jettySize=auto;html=1;entryX=0.519;entryY=-0.117;entryDx=0;entryDy=0;entryPerimeter=0;exitX=0;exitY=0.5;exitDx=0;exitDy=0;" edge="1" parent="1" source="QA0QUVK-8WRyYNtd_WsQ-18" target="QA0QUVK-8WRyYNtd_WsQ-16">
          <mxGeometry relative="1" as="geometry">
            <mxPoint x="300" y="705" as="sourcePoint" />
          </mxGeometry>
        </mxCell>
        <mxCell id="QA0QUVK-8WRyYNtd_WsQ-18" value="jumpType == 任务墙？" style="rhombus;whiteSpace=wrap;html=1;" vertex="1" parent="1">
          <mxGeometry x="310" y="680" width="180" height="80" as="geometry" />
        </mxCell>
      </root>
    </mxGraphModel>
  </diagram>
</mxfile>
